<?xml version="1.0" standalone="no"?>
<!DOCTYPE svg PUBLIC "-//W3C//DTD SVG 20010904//EN"
 "http://www.w3.org/TR/2001/REC-SVG-20010904/DTD/svg10.dtd">
<svg version="1.0" xmlns="http://www.w3.org/2000/svg"
 width="592.000000pt" height="592.000000pt" viewBox="0 0 592.000000 592.000000"
 preserveAspectRatio="xMidYMid meet">
<metadata>
Created by potrace 1.14, written by Peter Selinger 2001-2017
</metadata>
<g transform="translate(0.000000,592.000000) scale(0.100000,-0.100000)"
fill="#000000" stroke="none">
<path d="M1570 4589 c-131 -15 -159 -20 -248 -43 -510 -133 -935 -528 -1104
-1026 -28 -84 -55 -186 -63 -245 -3 -16 -9 -57 -14 -90 -10 -66 -7 -318 4
-405 12 -87 60 -268 94 -355 46 -114 123 -256 193 -355 80 -112 271 -300 384
-377 190 -130 425 -228 619 -258 126 -20 188 -26 294 -26 142 -2 217 17 299
73 56 39 172 155 172 173 0 3 8 14 18 25 22 27 73 116 118 210 20 41 69 143
109 225 40 83 108 222 150 310 43 88 118 243 167 345 50 102 121 248 158 325
37 77 101 210 143 295 41 85 112 232 157 325 45 94 95 197 110 230 36 77 62
105 92 97 43 -11 25 22 323 -587 318 -649 366 -748 363 -750 -17 -11 -69 -26
-77 -21 -6 4 -27 42 -47 84 -20 42 -86 178 -147 302 -60 124 -151 311 -202
415 -122 250 -216 439 -220 443 -2 2 -12 -1 -23 -7 -19 -10 -18 -15 30 -111
27 -56 85 -176 130 -268 181 -374 239 -494 308 -637 40 -82 83 -171 96 -198
l24 -47 -27 -10 c-16 -6 -35 -13 -43 -17 -8 -3 -17 -7 -20 -8 -3 0 -61 -19
-130 -42 -69 -23 -172 -55 -230 -73 -58 -17 -132 -40 -165 -50 -58 -18 -452
-122 -508 -134 -16 -4 -27 -12 -25 -19 2 -7 80 -133 173 -280 94 -147 177
-278 185 -292 78 -127 144 -225 151 -225 7 0 252 152 267 165 4 3 -52 180 -69
220 -17 41 -101 297 -97 299 1 2 37 16 78 31 87 32 91 34 270 110 74 32 168
73 208 92 41 19 75 33 77 31 2 -2 39 -77 83 -168 315 -655 429 -883 455 -912
29 -31 84 -61 97 -53 15 9 12 45 -4 45 -28 0 -88 84 -145 203 -32 67 -102 212
-156 322 -53 110 -110 227 -125 260 -15 33 -57 121 -94 195 l-65 135 36 19 36
18 18 -23 c10 -13 19 -27 19 -30 0 -4 74 -157 164 -340 90 -184 200 -409 244
-500 92 -191 116 -219 190 -220 270 -5 274 -4 293 19 11 14 16 32 13 49 -3 14
-140 294 -304 621 -165 328 -299 596 -297 598 3 2 66 38 132 74 28 15 74 41
103 59 29 17 55 31 57 31 11 0 893 517 913 535 7 6 -23 -6 -65 -26 -132 -64
-346 -165 -383 -182 -19 -8 -66 -30 -105 -47 -214 -98 -700 -300 -719 -300 -6
0 -50 78 -97 173 -47 94 -235 470 -419 835 -322 643 -334 665 -382 703 -47 37
-65 43 -129 42 -39 -1 -91 -29 -131 -71 -25 -26 -163 -290 -463 -887 -902
-1792 -851 -1696 -947 -1796 -68 -71 -121 -91 -242 -95 -113 -3 -176 6 -286
43 -211 71 -436 223 -585 396 -27 32 -55 63 -61 70 -28 32 -98 143 -128 204
-56 112 -84 190 -111 318 -15 65 -14 320 1 415 81 527 476 937 1006 1046 70
14 157 18 549 20 521 2 513 1 567 72 38 49 39 141 2 194 -51 76 -32 73 -535
73 -247 1 -475 -2 -505 -6z"/>
</g>
</svg>
